<?xml version="1.0" encoding="utf-8"?>
<!-- Generator: Adobe Illustrator 21.0.0, SVG Export Plug-In . SVG Version: 6.00 Build 0)  -->
<svg version="1.1" id="back_中_-按下" xmlns="http://www.w3.org/2000/svg" xmlns:xlink="http://www.w3.org/1999/xlink" x="0px"
	 y="0px" viewBox="0 0 160.5 46.5" style="enable-background:new 0 0 160.5 46.5;" xml:space="preserve">
<style type="text/css">
	.st0{fill:#1787DD;}
	.st1{font-family:'MicrosoftYaHei';}
	.st2{font-size:26px;}
	.st3{fill:none;stroke:#1787DD;stroke-width:2;stroke-linecap:round;}
	.st4{fill:url(#SVGID_1_);stroke:#1787DD;stroke-width:0.5;}
</style>
<g id="文字">
	<text id="返回" transform="matrix(1 0 0 1 68.25 32.25)" class="st0 st1 st2">返回</text>
	<g id="箭头">
		<path id="圆角矩形_4" class="st3" d="M39.3,20.3h14c3.9,0,7,3.1,7,7s-3.1,7-7,7h-8"/>
		<g id="组_2">
			<path id="圆角矩形_5" class="st0" d="M37.5,19.5l7.1-7.1c0.4-0.4,1-0.4,1.4,0c0.4,0.4,0.4,1,0,1.4L38.9,21
				c-0.4,0.4-1,0.4-1.4,0C37.1,20.6,37.1,19.9,37.5,19.5z"/>
			<path id="圆角矩形_5_拷贝" class="st0" d="M37.5,19.5c0.4-0.4,1-0.4,1.4,0l7.1,7.1c0.4,0.4,0.4,1,0,1.4
				c-0.4,0.4-1,0.4-1.4,0L37.5,21C37.1,20.6,37.1,19.9,37.5,19.5z"/>
		</g>
	</g>
</g>
<linearGradient id="SVGID_1_" gradientUnits="userSpaceOnUse" x1="80.25" y1="46.25" x2="80.25" y2="0.25">
	<stop  offset="0" style="stop-color:#FFFFFF"/>
	<stop  offset="1" style="stop-color:#1787DD"/>
</linearGradient>
<path class="st4" d="M137.3,0.3h-114c-12.7,0-23,10.3-23,23s10.3,23,23,23h114c12.7,0,23-10.3,23-23S149.9,0.3,137.3,0.3z
	 M136.3,42.3h-112c-10.5,0-19-8.5-19-19s8.5-19,19-19h112c10.5,0,19,8.5,19,19S146.7,42.3,136.3,42.3z"/>
</svg>
