<?xml version="1.0" encoding="iso-8859-1"?>
<!-- Generator: Adobe Illustrator 21.0.0, SVG Export Plug-In . SVG Version: 6.00 Build 0)  -->
<svg version="1.1" id="&#x56FE;&#x5C42;_1" xmlns="http://www.w3.org/2000/svg" xmlns:xlink="http://www.w3.org/1999/xlink" x="0px"
	 y="0px" viewBox="0 0 24 28" style="enable-background:new 0 0 24 28;" xml:space="preserve">
<g>
	<path style="fill:none;stroke:#1787DD;stroke-width:1.598;stroke-miterlimit:10;" d="M22.784,25H1.216
		c0-5.956,1.725-8.196,10.784-8.196S22.784,19.044,22.784,25z"/>
	<path style="fill:none;stroke:#1787DD;stroke-width:1.598;stroke-miterlimit:10;" d="M12.216,3C8.761,3,5.961,5.8,5.961,9.255
		s2.8,6.255,6.255,6.255s6.255-2.8,6.255-6.255S15.67,3,12.216,3z"/>
	<g>
		<path style="fill:#1787DD;" d="M13.294,6.721c0-0.356,0.291-0.647,0.647-0.647s0.647,0.291,0.647,0.647v1.294
			c0,0.356-0.291,0.647-0.647,0.647s-0.647-0.291-0.647-0.647V6.721z"/>
		<path style="fill:#1787DD;" d="M9.843,6.721c0-0.356,0.291-0.647,0.647-0.647s0.647,0.291,0.647,0.647v1.294
			c0,0.356-0.291,0.647-0.647,0.647S9.843,8.371,9.843,8.015V6.721z"/>
		<path style="fill:#1787DD;" d="M12.216,12.436L12.216,12.436c-1.424,0-2.588-1.165-2.588-2.588h5.176
			C14.804,11.272,13.639,12.436,12.216,12.436z"/>
	</g>
</g>
</svg>
